<mxfile host="app.diagrams.net" agent="Mozilla/5.0 (Windows NT 10.0; Win64; x64) AppleWebKit/537.36 (KHTML, like Gecko) Chrome/137.0.0.0 Safari/537.36" version="27.1.6">
  <diagram name="Page-1" id="oYcJsWPOGNZw0WboEz5N">
    <mxGraphModel dx="983" dy="540" grid="1" gridSize="10" guides="1" tooltips="1" connect="1" arrows="1" fold="1" page="1" pageScale="1" pageWidth="827" pageHeight="1169" math="0" shadow="0">
      <root>
        <mxCell id="0" />
        <mxCell id="1" parent="0" />
        <mxCell id="llT9Tdm23ojjUZHPbas6-32" value="" style="rounded=1;arcSize=17;dashed=1;fillColor=none;gradientColor=none;dashPattern=1 1;strokeWidth=2;fontSize=15;" vertex="1" parent="1">
          <mxGeometry x="430" y="236" width="309.75" height="194" as="geometry" />
        </mxCell>
        <mxCell id="llT9Tdm23ojjUZHPbas6-2" value="" style="sketch=0;outlineConnect=0;fontColor=#232F3E;gradientColor=none;fillColor=#232F3D;strokeColor=none;dashed=0;verticalLabelPosition=bottom;verticalAlign=top;align=center;html=1;fontSize=15;fontStyle=0;aspect=fixed;pointerEvents=1;shape=mxgraph.aws4.client;" vertex="1" parent="1">
          <mxGeometry x="70" y="160" width="78" height="76" as="geometry" />
        </mxCell>
        <mxCell id="llT9Tdm23ojjUZHPbas6-3" value="Minioth&lt;br&gt;Server" style="rounded=1;whiteSpace=wrap;html=1;fontSize=15;strokeWidth=2;" vertex="1" parent="1">
          <mxGeometry x="300" y="160" width="120" height="60" as="geometry" />
        </mxCell>
        <mxCell id="llT9Tdm23ojjUZHPbas6-4" value="" style="aspect=fixed;sketch=0;html=1;dashed=0;whitespace=wrap;verticalLabelPosition=bottom;verticalAlign=top;fillColor=#2875E2;strokeColor=#ffffff;points=[[0.005,0.63,0],[0.1,0.2,0],[0.9,0.2,0],[0.5,0,0],[0.995,0.63,0],[0.72,0.99,0],[0.5,1,0],[0.28,0.99,0]];shape=mxgraph.kubernetes.icon2;prIcon=api;fontSize=15;" vertex="1" parent="1">
          <mxGeometry x="370" y="130" width="50" height="48" as="geometry" />
        </mxCell>
        <mxCell id="llT9Tdm23ojjUZHPbas6-11" style="edgeStyle=orthogonalEdgeStyle;rounded=0;orthogonalLoop=1;jettySize=auto;html=1;fontSize=15;strokeWidth=2;" edge="1" parent="1" source="llT9Tdm23ojjUZHPbas6-7" target="llT9Tdm23ojjUZHPbas6-2">
          <mxGeometry relative="1" as="geometry" />
        </mxCell>
        <mxCell id="llT9Tdm23ojjUZHPbas6-7" value="" style="dashed=0;outlineConnect=0;html=1;align=center;labelPosition=center;verticalLabelPosition=bottom;verticalAlign=top;shape=mxgraph.weblogos.json_2;fontSize=15;" vertex="1" parent="1">
          <mxGeometry x="230" y="280" width="80.4" height="25.200000000000003" as="geometry" />
        </mxCell>
        <mxCell id="llT9Tdm23ojjUZHPbas6-8" style="edgeStyle=orthogonalEdgeStyle;rounded=0;orthogonalLoop=1;jettySize=auto;html=1;entryX=0.042;entryY=0.633;entryDx=0;entryDy=0;entryPerimeter=0;fontSize=15;strokeWidth=2;" edge="1" parent="1" source="llT9Tdm23ojjUZHPbas6-2" target="llT9Tdm23ojjUZHPbas6-3">
          <mxGeometry relative="1" as="geometry" />
        </mxCell>
        <mxCell id="llT9Tdm23ojjUZHPbas6-12" value="Post /login&lt;div&gt;&lt;br&gt;&lt;/div&gt;" style="edgeLabel;html=1;align=center;verticalAlign=middle;resizable=0;points=[];labelBackgroundColor=none;fontSize=15;" vertex="1" connectable="0" parent="llT9Tdm23ojjUZHPbas6-8">
          <mxGeometry x="-0.1951" y="-2" relative="1" as="geometry">
            <mxPoint y="-2" as="offset" />
          </mxGeometry>
        </mxCell>
        <mxCell id="llT9Tdm23ojjUZHPbas6-35" value="Post /register" style="edgeLabel;html=1;align=center;verticalAlign=middle;resizable=0;points=[];fontSize=15;" vertex="1" connectable="0" parent="llT9Tdm23ojjUZHPbas6-8">
          <mxGeometry x="0.3895" y="-2" relative="1" as="geometry">
            <mxPoint x="-47" y="10" as="offset" />
          </mxGeometry>
        </mxCell>
        <mxCell id="llT9Tdm23ojjUZHPbas6-10" value="" style="endArrow=classic;html=1;rounded=0;exitX=0.5;exitY=1;exitDx=0;exitDy=0;fontSize=15;strokeWidth=2;" edge="1" parent="1" source="llT9Tdm23ojjUZHPbas6-3" target="llT9Tdm23ojjUZHPbas6-7">
          <mxGeometry width="50" height="50" relative="1" as="geometry">
            <mxPoint x="390" y="230" as="sourcePoint" />
            <mxPoint x="370" y="290" as="targetPoint" />
            <Array as="points">
              <mxPoint x="360" y="293" />
            </Array>
          </mxGeometry>
        </mxCell>
        <mxCell id="llT9Tdm23ojjUZHPbas6-16" value="&lt;span style=&quot;text-wrap-mode: wrap;&quot;&gt;{&lt;br&gt;JWTtoken, uid, username, groups&lt;br&gt;}&lt;/span&gt;" style="text;html=1;align=center;verticalAlign=middle;resizable=0;points=[];autosize=1;strokeColor=none;fillColor=none;fontSize=15;" vertex="1" parent="1">
          <mxGeometry x="140" y="320" width="250" height="70" as="geometry" />
        </mxCell>
        <mxCell id="llT9Tdm23ojjUZHPbas6-18" value="Minioth Handler Interface" style="shape=hexagon;perimeter=hexagonPerimeter2;whiteSpace=wrap;html=1;fixedSize=1;fontSize=15;strokeWidth=2;" vertex="1" parent="1">
          <mxGeometry x="500" y="150" width="120" height="80" as="geometry" />
        </mxCell>
        <mxCell id="llT9Tdm23ojjUZHPbas6-19" value="" style="endArrow=none;html=1;rounded=0;exitX=0;exitY=0.5;exitDx=0;exitDy=0;entryX=1;entryY=0.5;entryDx=0;entryDy=0;fontSize=15;strokeWidth=2;" edge="1" parent="1" source="llT9Tdm23ojjUZHPbas6-18" target="llT9Tdm23ojjUZHPbas6-3">
          <mxGeometry width="50" height="50" relative="1" as="geometry">
            <mxPoint x="390" y="230" as="sourcePoint" />
            <mxPoint x="440" y="180" as="targetPoint" />
          </mxGeometry>
        </mxCell>
        <mxCell id="llT9Tdm23ojjUZHPbas6-20" value="" style="strokeWidth=2;html=1;shape=mxgraph.flowchart.database;whiteSpace=wrap;fontSize=15;" vertex="1" parent="1">
          <mxGeometry x="595" y="280" width="50" height="60" as="geometry" />
        </mxCell>
        <mxCell id="llT9Tdm23ojjUZHPbas6-21" value="Plain Handler" style="sketch=0;outlineConnect=0;fontColor=#232F3E;gradientColor=none;fillColor=#232F3D;strokeColor=none;dashed=0;verticalLabelPosition=bottom;verticalAlign=top;align=center;html=1;fontSize=15;fontStyle=0;aspect=fixed;pointerEvents=1;shape=mxgraph.aws4.document;" vertex="1" parent="1">
          <mxGeometry x="480" y="280" width="43.85" height="60" as="geometry" />
        </mxCell>
        <mxCell id="llT9Tdm23ojjUZHPbas6-22" value="" style="shape=image;html=1;verticalAlign=top;verticalLabelPosition=bottom;labelBackgroundColor=#ffffff;imageAspect=0;aspect=fixed;image=https://cdn4.iconfinder.com/data/icons/user-interface-181/32/Gear-128.png;fontSize=15;" vertex="1" parent="1">
          <mxGeometry x="680" y="245" width="50" height="50" as="geometry" />
        </mxCell>
        <mxCell id="llT9Tdm23ojjUZHPbas6-25" value="" style="endArrow=none;dashed=1;html=1;dashPattern=1 3;strokeWidth=2;rounded=0;exitX=0.375;exitY=1;exitDx=0;exitDy=0;fontSize=15;" edge="1" parent="1" source="llT9Tdm23ojjUZHPbas6-18" target="llT9Tdm23ojjUZHPbas6-21">
          <mxGeometry width="50" height="50" relative="1" as="geometry">
            <mxPoint x="490" y="350" as="sourcePoint" />
            <mxPoint x="540" y="300" as="targetPoint" />
            <Array as="points">
              <mxPoint x="545" y="250" />
              <mxPoint x="502" y="250" />
            </Array>
          </mxGeometry>
        </mxCell>
        <mxCell id="llT9Tdm23ojjUZHPbas6-26" value="" style="endArrow=none;dashed=1;html=1;dashPattern=1 3;strokeWidth=2;rounded=0;entryX=0.625;entryY=1;entryDx=0;entryDy=0;exitX=0.5;exitY=0;exitDx=0;exitDy=0;exitPerimeter=0;fontSize=15;" edge="1" parent="1" source="llT9Tdm23ojjUZHPbas6-20" target="llT9Tdm23ojjUZHPbas6-18">
          <mxGeometry width="50" height="50" relative="1" as="geometry">
            <mxPoint x="490" y="350" as="sourcePoint" />
            <mxPoint x="540" y="300" as="targetPoint" />
            <Array as="points">
              <mxPoint x="620" y="250" />
              <mxPoint x="575" y="250" />
            </Array>
          </mxGeometry>
        </mxCell>
        <mxCell id="llT9Tdm23ojjUZHPbas6-27" value="Database Handler" style="text;html=1;align=center;verticalAlign=middle;resizable=0;points=[];autosize=1;strokeColor=none;fillColor=none;fontSize=15;" vertex="1" parent="1">
          <mxGeometry x="550" y="340" width="140" height="30" as="geometry" />
        </mxCell>
        <mxCell id="llT9Tdm23ojjUZHPbas6-28" value="mpasswd" style="text;html=1;align=center;verticalAlign=middle;resizable=0;points=[];autosize=1;strokeColor=none;fillColor=none;fontSize=12;" vertex="1" parent="1">
          <mxGeometry x="500" y="285" width="70" height="30" as="geometry" />
        </mxCell>
        <mxCell id="llT9Tdm23ojjUZHPbas6-30" value="mgroup" style="text;html=1;align=center;verticalAlign=middle;resizable=0;points=[];autosize=1;strokeColor=none;fillColor=none;fontSize=12;" vertex="1" parent="1">
          <mxGeometry x="500" y="295" width="60" height="30" as="geometry" />
        </mxCell>
        <mxCell id="llT9Tdm23ojjUZHPbas6-31" value="mshadow" style="text;html=1;align=center;verticalAlign=middle;resizable=0;points=[];autosize=1;strokeColor=none;fillColor=none;fontSize=12;" vertex="1" parent="1">
          <mxGeometry x="500" y="305.2" width="70" height="30" as="geometry" />
        </mxCell>
        <mxCell id="llT9Tdm23ojjUZHPbas6-33" value="conf" style="text;html=1;align=center;verticalAlign=middle;resizable=0;points=[];autosize=1;strokeColor=none;fillColor=none;fontSize=15;" vertex="1" parent="1">
          <mxGeometry x="680" y="295" width="50" height="30" as="geometry" />
        </mxCell>
      </root>
    </mxGraphModel>
  </diagram>
</mxfile>
